<svg preserveAspectRatio="none" width="100%" height="100%" overflow="visible" style="display: block;" viewBox="0 0 30 30" fill="none" xmlns="http://www.w3.org/2000/svg">
<g id="Group">
<path id="Vector" d="M10.5679 5.19652C11.4691 2.55908 15.1131 2.4792 16.1816 4.95689L16.272 5.19803L17.4882 8.75481C17.7669 9.57051 18.2173 10.3169 18.809 10.9438C19.4007 11.5706 20.1199 12.0632 20.9182 12.3885L21.2452 12.5105L24.8018 13.7253C27.4391 14.6265 27.519 18.2707 25.0429 19.3393L24.8018 19.4297L21.2452 20.6459C20.4292 20.9245 19.6826 21.3748 19.0555 21.9665C18.4284 22.5583 17.9356 23.2776 17.6102 24.0761L17.4882 24.4016L16.2735 27.9599C15.3723 30.5974 11.7283 30.6773 10.6613 28.2011L10.5679 27.9599L9.3532 24.4031C9.07467 23.5872 8.62436 22.8404 8.03265 22.2133C7.44095 21.5862 6.72161 21.0934 5.9232 20.768L5.59768 20.6459L2.04109 19.4312C-0.597722 18.5299 -0.677594 14.8857 1.79996 13.8187L2.04109 13.7253L5.59768 12.5105C6.41334 12.2318 7.15974 11.7814 7.78653 11.1897C8.41332 10.5979 8.90593 9.87865 9.23113 9.08035L9.3532 8.75481L10.5679 5.19652ZM13.4207 6.17011L12.206 9.7269C11.7816 10.9707 11.0912 12.1071 10.1829 13.0569C9.27454 14.0066 8.1701 14.747 6.94647 15.2263L6.56972 15.3635L3.01312 16.5782L6.56972 17.793C7.81347 18.2174 8.94978 18.9078 9.89949 19.8162C10.8492 20.7246 11.5895 21.8291 12.0689 23.0528L12.206 23.4296L13.4207 26.9863L14.6353 23.4296C15.0597 22.1857 15.7501 21.0494 16.6585 20.0996C17.5668 19.1498 18.6713 18.4095 19.8949 17.9301L20.2716 17.7945L23.8282 16.5782L20.2716 15.3635C19.0279 14.9391 17.8916 14.2486 16.9419 13.3403C15.9921 12.4319 15.2518 11.3274 14.7725 10.1037L14.6369 9.7269L13.4207 6.17011ZM25.4769 2.72316e-07C25.7589 -3.55636e-07 26.0351 0.0790906 26.2744 0.228285C26.5136 0.377478 26.7062 0.590792 26.8302 0.843983L26.9026 1.02031L27.43 2.56661L28.9778 3.0941C29.2603 3.1901 29.508 3.36781 29.6894 3.60473C29.8709 3.84165 29.9779 4.1271 29.9969 4.42491C30.016 4.72272 29.9462 5.01948 29.7964 5.27758C29.6466 5.53569 29.4236 5.74351 29.1556 5.87472L28.9778 5.94706L27.4315 6.47455L26.9041 8.02235C26.8079 8.30483 26.6301 8.5524 26.3931 8.7337C26.1561 8.915 25.8706 9.02186 25.5728 9.04074C25.2751 9.05963 24.9784 8.98969 24.7204 8.83978C24.4624 8.68987 24.2547 8.46675 24.1236 8.19869L24.0513 8.02235L23.5238 6.47606L21.9761 5.94857C21.6936 5.85257 21.4459 5.67485 21.2644 5.43794C21.083 5.20102 20.976 4.91557 20.9569 4.61776C20.9379 4.31995 21.0077 4.02319 21.1574 3.76509C21.3072 3.50698 21.5303 3.29916 21.7983 3.16795L21.9761 3.09561L23.5223 2.56812L24.0498 1.02031C24.1514 0.722548 24.3436 0.464053 24.5996 0.281075C24.8555 0.0980964 25.1623 -0.000188813 25.4769 2.72316e-07Z" fill="var(--fill-0, #0D004D)"/>
</g>
</svg>
