<svg preserveAspectRatio="none" width="100%" height="100%" overflow="visible" style="display: block;" viewBox="0 0 19.3255 20.9859" fill="none" xmlns="http://www.w3.org/2000/svg">
<g id="Group">
<path id="Vector" d="M14.0511 1.92606L14.5541 3.11591L15.744 3.61893L14.5541 4.12195L14.0511 5.3118L13.5481 4.12195L12.3583 3.61893L13.5481 3.11591L14.0511 1.92606Z" stroke="var(--stroke-0, #FCFCFE)" stroke-width="1.5"/>
<path id="Vector_2" d="M13.135 14.7954L18.2648 19.9252M13.135 14.7954C12.3057 15.6245 11.2879 16.2402 10.1686 16.5899C9.04934 16.9396 7.86199 17.0127 6.70825 16.8031C5.55452 16.5935 4.46878 16.1074 3.54404 15.3863C2.61929 14.6653 1.8831 13.7309 1.3985 12.663C0.91391 11.5952 0.695362 10.4259 0.761577 9.25513C0.827792 8.08438 1.1768 6.94712 1.7787 5.94077C2.3806 4.93441 3.21746 4.08894 4.21761 3.47677C5.21776 2.86461 6.35138 2.50399 7.5214 2.4258M13.135 14.7954C14.3797 13.5543 15.1294 11.9022 15.2438 10.1482" stroke="var(--stroke-0, #FCFCFE)" stroke-width="1.5" stroke-linecap="square"/>
</g>
</svg>
