<svg preserveAspectRatio="none" width="100%" height="100%" overflow="visible" style="display: block;" viewBox="0 0 24 24" fill="none" xmlns="http://www.w3.org/2000/svg">
<g id="trim">
<path id="icon" fill-rule="evenodd" clip-rule="evenodd" d="M8.49953 19.0001C9.46603 19.0001 10.2495 19.7836 10.2495 20.7501C10.2495 21.7166 9.46603 22.5001 8.49953 22.5001C7.53303 22.5001 6.74953 21.7166 6.74953 20.7501C6.74953 19.7836 7.53303 19.0001 8.49953 19.0001ZM18.9995 19.0001C19.966 19.0001 20.7495 19.7836 20.7495 20.7501C20.7495 21.7166 19.966 22.5001 18.9995 22.5001C18.033 22.5001 17.2495 21.7166 17.2495 20.7501C17.2495 19.7836 18.033 19.0001 18.9995 19.0001ZM3.68761 1.49994C4.65408 1.49994 5.48231 2.19098 5.65536 3.14183L6.08453 5.49988L22.2505 5.50004C22.8028 5.50005 23.2505 5.94777 23.2505 6.50005C23.2505 6.56027 23.245 6.62037 23.2342 6.67962L21.7083 15.0387C21.4481 16.4643 20.2062 17.5 18.7571 17.5H8.73731C7.28743 17.5 6.04504 16.463 5.78572 15.0365L3.80049 4.11578C3.73566 3.75913 3.42503 3.4999 3.06254 3.49992L1.74953 3.5C1.23673 3.50003 0.814056 3.11403 0.756265 2.61673L0.749531 2.50006C0.749531 1.94776 1.19724 1.49994 1.74953 1.49994H3.68761ZM6.44753 7.49988L7.7532 14.6788C7.83247 15.1147 8.18704 15.4414 8.61782 15.4928L8.73705 15.4999L18.7565 15.5C19.1993 15.5 19.5841 15.2099 19.7119 14.7955L19.7403 14.6796L21.0505 7.50006L6.44753 7.49988Z" fill="var(--fill-0, #060609)"/>
</g>
</svg>
