<svg preserveAspectRatio="none" width="100%" height="100%" overflow="visible" style="display: block;" viewBox="0 0 80.2675 18" fill="none" xmlns="http://www.w3.org/2000/svg">
<g id="Group">
<path id="Vector" d="M62.2335 5.40089C58.6553 5.40089 55.8043 8.19112 55.8043 11.7025C55.8043 15.2138 58.6463 17.9927 62.2245 17.9927C65.8028 17.9927 68.6447 15.211 68.6447 11.7001C68.6447 8.18923 65.8113 5.40137 62.2331 5.40137L62.2335 5.40089ZM62.225 15.1636C60.1688 15.1636 58.9007 13.5722 58.9007 11.7025C58.9007 9.83268 60.1693 8.23894 62.225 8.23894C64.2807 8.23894 65.5492 9.83031 65.5492 11.7001C65.5492 13.5699 64.2807 15.1636 62.225 15.1636Z" fill="var(--fill-0, #512EAB)"/>
<path id="Vector_2" d="M17.2298 5.40211C13.681 5.40211 11.1154 8.25436 11.1149 11.7202C11.1149 15.1113 13.5702 18 17.1351 18C19.7074 18 22.049 16.4645 22.9337 14.073H19.8116C19.3278 14.7131 18.3804 15.2567 17.1546 15.2567C15.2012 15.2567 14.3131 13.8684 14.2104 12.8083H23.1392C23.1915 12.4669 23.22 11.9002 23.22 11.5062C23.22 7.83533 20.507 5.40211 17.2298 5.40211ZM14.2175 10.4944C14.2175 9.18049 15.5189 8.1161 17.1237 8.1161C18.7285 8.1161 20.0308 9.18096 20.0308 10.4944H14.2171H14.2175Z" fill="var(--fill-0, #512EAB)"/>
<path id="Vector_3" d="M74.8169 5.40211C71.8033 5.40211 69.3675 7.82538 69.3675 10.8263V17.6927H72.423L72.424 10.8306C72.424 9.27992 73.5303 8.29176 74.8122 8.29176C76.0931 8.29176 77.1932 9.2875 77.1918 10.8386L77.1856 17.6927H80.2673V10.8282C80.2678 7.82728 77.8311 5.40211 74.8169 5.40211Z" fill="var(--fill-0, #512EAB)"/>
<path id="Vector_4" d="M45.987 5.78515C45.6498 5.62796 44.9178 5.40211 44.0821 5.40211C41.673 5.40211 40.7364 7.24774 40.6327 7.45228V5.70892H37.7399L37.7318 17.6913L40.7854 17.6927V9.85236C40.8691 9.69043 41.7262 8.23495 43.5009 8.23495C44.1644 8.23495 44.7685 8.43854 44.9216 8.51288L45.9875 5.78468L45.987 5.78515Z" fill="var(--fill-0, #512EAB)"/>
<path id="Vector_5" d="M30.2655 5.40089C26.7129 5.40089 23.8243 8.16034 23.8243 11.755C23.8243 15.121 26.3571 18.0064 29.7803 17.9993C31.5036 17.996 32.863 17.2607 33.5698 16.1949V17.693H36.6633L36.661 11.5443C36.6595 8.07985 33.7667 5.40089 30.266 5.40089H30.2655ZM30.2446 15.2039C28.1884 15.2039 26.9198 13.5888 26.9198 11.719C26.9198 9.84925 28.1888 8.23421 30.2446 8.23421C32.3003 8.23421 33.5693 9.84925 33.5693 11.719C33.5693 13.5888 32.3003 15.2039 30.2446 15.2039Z" fill="var(--fill-0, #512EAB)"/>
<path id="Vector_6" d="M51.4972 10.5394C49.4672 10.1095 48.6553 9.93238 48.6553 9.24536C48.6553 8.4679 49.696 8.06307 50.7942 8.06307C52.4618 8.06307 53.6947 8.99536 53.8317 9.09905L55.3537 6.87558C54.5746 6.3557 53.093 5.40211 50.7667 5.40211C47.5371 5.40211 45.6592 7.23259 45.6592 9.27377C45.6592 11.4224 47.7392 12.4376 50.126 12.938C51.952 13.3211 52.5113 13.4683 52.5113 14.1099C52.5113 14.9849 51.4706 15.3381 50.4114 15.3381C48.7775 15.3381 47.4219 14.4977 46.5991 13.6213L44.8991 15.8187C45.6083 16.4901 47.4443 17.9991 50.3595 17.9991C53.2747 17.9991 55.583 16.3485 55.583 14.3021C55.583 11.8268 53.8826 11.0436 51.4972 10.5384V10.5394Z" fill="var(--fill-0, #512EAB)"/>
<path id="Vector_7" d="M6.03114 3.33115e-05H0.00190297L0 17.6931H3.03412L3.0365 11.3181H6.03114C9.5585 11.3181 11.9182 8.89344 11.9182 5.65909C11.9182 2.42473 9.5585 3.33115e-05 6.03114 3.33115e-05ZM5.65015 8.43795H3.0365V2.88022H5.65015C7.73108 2.88022 8.82268 3.99196 8.82268 5.65909C8.82268 7.32622 7.73108 8.43795 5.65015 8.43795Z" fill="var(--fill-0, #512EAB)"/>
</g>
</svg>
