<svg preserveAspectRatio="none" width="100%" height="100%" overflow="visible" style="display: block;" viewBox="0 0 7.925 17.6931" fill="none" xmlns="http://www.w3.org/2000/svg">
<g id="Group">
<path id="Vector" d="M5.02644 1.58335V1.58619C5.02644 1.58619 5.37794 4.26467 5.37794 8.83661C5.37794 13.4086 5.02644 16.0899 5.02644 16.0866V16.0894C6.82293 14.1912 7.925 11.642 7.925 8.83709V8.83567C7.925 6.03076 6.82293 3.48153 5.02644 1.58335Z" fill="var(--fill-0, #512EAB)"/>
<path id="Vector_2" d="M5.08984 6.3849C4.71313 4.9673 4.00776 3.63161 3.03079 2.41807C2.19271 1.48105 1.17531 0.663348 0.0223552 0C1.14059 1.75946 1.89305 5.05016 1.89305 8.81954C1.89305 12.5889 1.14202 15.8721 0.0261612 17.6334C0.0175996 17.6533 0.00856155 17.6732 0 17.6931C0.643068 17.3247 1.24428 16.9085 1.79555 16.4502C3.69859 14.6472 4.95048 12.4833 5.30198 10.1297C5.3524 9.71016 5.37856 9.28308 5.37856 8.84985C5.37856 8.00089 5.27867 7.17609 5.09032 6.38443L5.08984 6.3849Z" fill="var(--fill-0, #512EAB)"/>
</g>
</svg>
