<svg width="17" height="19" viewBox="0 0 17 19" fill="none" xmlns="http://www.w3.org/2000/svg">
<g clip-path="url(#clip0_2390_7758)">
<path d="M9.09277 7.41895C9.2234 7.02707 9.7766 7.02707 9.90723 7.41895L10.6729 9.71875C10.8414 10.2244 11.1259 10.6838 11.5029 11.0605C11.8798 11.4372 12.3391 11.7213 12.8447 11.8896L15.1445 12.6553C15.5359 12.786 15.5359 13.3389 15.1445 13.4697L12.8438 14.2363C12.3382 14.4049 11.8787 14.6885 11.502 15.0654C11.1252 15.4424 10.8412 15.9025 10.6729 16.4082L9.90723 18.707C9.87905 18.7928 9.82407 18.867 9.75098 18.9199C9.67786 18.9729 9.59027 19.0019 9.5 19.002C9.40969 19.002 9.32119 18.9729 9.24805 18.9199C9.17521 18.867 9.12089 18.7926 9.09277 18.707L8.32715 16.4062C8.15873 15.901 7.87455 15.4421 7.49805 15.0654C7.12136 14.6887 6.66161 14.4048 6.15625 14.2363L3.85547 13.4697C3.76995 13.4416 3.69547 13.3873 3.64258 13.3145C3.5896 13.2413 3.56055 13.1528 3.56055 13.0625C3.56058 12.9723 3.58966 12.8846 3.64258 12.8115C3.6955 12.7385 3.76976 12.6835 3.85547 12.6553L6.15625 11.8896C6.66168 11.7212 7.12132 11.4373 7.49805 11.0605C7.87477 10.6838 8.15869 10.2242 8.32715 9.71875L9.09277 7.41895ZM4.75 1.18652C4.804 1.18653 4.85656 1.20382 4.90039 1.23535C4.94423 1.26702 4.97709 1.31197 4.99414 1.36328L5.4541 2.74316C5.65954 3.35828 6.14172 3.84046 6.75684 4.0459L8.13672 4.50586C8.1881 4.5229 8.23295 4.55572 8.26465 4.59961C8.29623 4.64343 8.31344 4.69598 8.31348 4.75C8.31348 4.80417 8.29637 4.85745 8.26465 4.90137C8.23294 4.94519 8.18807 4.97811 8.13672 4.99512L6.75684 5.4541C6.45333 5.55483 6.17731 5.72507 5.95117 5.95117C5.72506 6.17729 5.55485 6.45335 5.4541 6.75684L4.99414 8.13672C4.97711 8.18814 4.94431 8.23293 4.90039 8.26465C4.85653 8.29626 4.80407 8.31347 4.75 8.31348C4.69583 8.31348 4.64255 8.29637 4.59863 8.26465C4.55491 8.23295 4.52186 8.188 4.50488 8.13672L4.0459 6.75684C3.94515 6.45334 3.77495 6.17729 3.54883 5.95117C3.32268 5.72505 3.04669 5.55484 2.74316 5.4541L1.36328 4.99512C1.31194 4.97812 1.26706 4.94517 1.23535 4.90137C1.20363 4.85745 1.18652 4.80417 1.18652 4.75C1.18656 4.69597 1.20375 4.64344 1.23535 4.59961C1.26706 4.5557 1.31187 4.52289 1.36328 4.50586L2.74316 4.0459C3.04668 3.94515 3.32269 3.77496 3.54883 3.54883C3.77493 3.32269 3.94517 3.04667 4.0459 2.74316L4.50488 1.36328C4.52188 1.31194 4.55482 1.26706 4.59863 1.23535C4.64255 1.20363 4.69583 1.18652 4.75 1.18652ZM13.0625 0.00195312C13.0983 0.00196198 13.133 0.0134372 13.1621 0.0341797C13.1913 0.0549293 13.2139 0.0843625 13.2256 0.118164L13.5312 1.03711C13.6678 1.44782 13.9897 1.76965 14.4004 1.90625L15.3203 2.21289C15.3538 2.22463 15.3827 2.24647 15.4033 2.27539C15.424 2.3045 15.4355 2.33927 15.4355 2.375C15.4355 2.41076 15.424 2.44546 15.4033 2.47461C15.3826 2.50368 15.354 2.52634 15.3203 2.53809L14.4004 2.84375C14.1982 2.91143 14.015 3.02601 13.8643 3.17676C13.7134 3.3276 13.5989 3.51156 13.5312 3.71387L13.2256 4.63281C13.2139 4.66661 13.1913 4.69605 13.1621 4.7168C13.133 4.73742 13.0982 4.74804 13.0625 4.74805C13.0268 4.74805 12.992 4.7374 12.9629 4.7168C12.9338 4.69606 12.9111 4.6666 12.8994 4.63281L12.5938 3.71387C12.5261 3.51156 12.4116 3.3276 12.2607 3.17676C12.11 3.02601 11.9268 2.91144 11.7246 2.84375L10.8066 2.53809C10.7728 2.52636 10.7434 2.50377 10.7227 2.47461C10.702 2.44548 10.6904 2.41074 10.6904 2.375C10.6905 2.33927 10.7019 2.3045 10.7227 2.27539C10.7434 2.24629 10.7729 2.2246 10.8066 2.21289L11.7256 1.90625C12.1363 1.76967 12.4582 1.44784 12.5947 1.03711L12.8994 0.118164C12.9111 0.0843515 12.9337 0.0549304 12.9629 0.0341797C12.992 0.0134419 13.0267 0.00195312 13.0625 0.00195312Z" fill="#FCFCFE"/>
</g>
<defs>
<clipPath id="clip0_2390_7758">
<rect width="19" height="19" fill="white"/>
</clipPath>
</defs>
</svg>
