<svg xmlns="http://www.w3.org/2000/svg" viewBox="0 0 24 24" width="24" height="24"><path fill-rule="evenodd" clip-rule="evenodd" d="M8.25 19.5a1.75 1.75 0 110 3.5 1.75 1.75 0 010-3.5zm10.5 0a1.75 1.75 0 110 3.5 1.75 1.75 0 010-3.5zM3.438 2a2 2 0 011.968 1.642L5.835 6h16.166a1 1 0 01.984 1.18l-1.526 8.359A3 3 0 0118.508 18H8.488a3 3 0 01-2.952-2.464L3.551 4.616A.75.75 0 002.813 4H1.5a1 1 0 01-.993-.883L.5 3a1 1 0 011-1h1.938zm2.76 6l1.306 7.179a1 1 0 00.864.814l.12.007h10.019a1 1 0 00.955-.704l.029-.116L20.8 8H6.198z" fill="currentColor"/></svg>
