<svg width="25" height="25" viewBox="0 0 25 25" fill="none" xmlns="http://www.w3.org/2000/svg">
<path d="M8.80656 4.33043C9.55756 2.13256 12.5942 2.066 13.4846 4.13074L13.56 4.33169L14.5735 7.29568C14.8057 7.97542 15.1811 8.59746 15.6741 9.11981C16.1672 9.64217 16.7666 10.0527 17.4318 10.3237L17.7043 10.4254L20.6681 11.4377C22.8659 12.1888 22.9325 15.2256 20.8691 16.116L20.6681 16.1914L17.7043 17.2049C17.0244 17.4371 16.4021 17.8123 15.8796 18.3054C15.357 18.7986 14.9463 19.398 14.6752 20.0634L14.5735 20.3347L13.5612 23.2999C12.8102 25.4978 9.77357 25.5644 8.88442 23.5009L8.80656 23.2999L7.79433 20.336C7.56223 19.656 7.18697 19.0337 6.69388 18.5111C6.20079 17.9885 5.60135 17.5778 4.936 17.3067L4.66473 17.2049L1.70091 16.1927C-0.498102 15.4416 -0.564662 12.4048 1.49997 11.5156L1.70091 11.4377L4.66473 10.4254C5.34445 10.1932 5.96645 9.81782 6.48877 9.32471C7.0111 8.8316 7.42161 8.23221 7.69261 7.56696L7.79433 7.29568L8.80656 4.33043ZM11.1839 5.14176L10.1717 8.10575C9.81801 9.14227 9.24268 10.0892 8.48573 10.8807C7.72878 11.6722 6.80842 12.2891 5.78873 12.6886L5.47476 12.8029L2.51094 13.8152L5.47476 14.8275C6.51123 15.1811 7.45815 15.7565 8.24958 16.5135C9.04101 17.2705 9.65794 18.1909 10.0574 19.2106L10.1717 19.5246L11.1839 22.4886L12.1961 19.5246C12.5498 18.4881 13.1251 17.5411 13.8821 16.7497C14.639 15.9582 15.5594 15.3412 16.5791 14.9418L16.893 14.8287L19.8569 13.8152L16.893 12.8029C15.8566 12.4492 14.9097 11.8739 14.1182 11.1169C13.3268 10.3599 12.7099 9.43948 12.3104 8.41973L12.1974 8.10575L11.1839 5.14176ZM21.2308 2.2693e-07C21.4657 -2.96364e-07 21.696 0.0659089 21.8953 0.190237C22.0947 0.314565 22.2552 0.492326 22.3585 0.703319L22.4188 0.850262L22.8584 2.13884L24.1481 2.57842C24.3836 2.65841 24.59 2.80651 24.7412 3.00394C24.8924 3.20138 24.9816 3.43925 24.9974 3.68743C25.0133 3.9356 24.9552 4.1829 24.8303 4.39799C24.7055 4.61307 24.5197 4.78626 24.2963 4.8956L24.1481 4.95589L22.8596 5.39546L22.4201 6.6853C22.3399 6.92069 22.1917 7.127 21.9942 7.27808C21.7967 7.42916 21.5588 7.51822 21.3107 7.53395C21.0625 7.54969 20.8153 7.4914 20.6003 7.36648C20.3853 7.24156 20.2122 7.05563 20.103 6.83224L20.0427 6.6853L19.6032 5.39672L18.3134 4.95714C18.078 4.87714 17.8716 4.72905 17.7204 4.53161C17.5692 4.33418 17.48 4.09631 17.4641 3.84813C17.4482 3.59996 17.5064 3.35266 17.6312 3.13757C17.756 2.92249 17.9419 2.7493 18.1652 2.63996L18.3134 2.57967L19.6019 2.1401L20.0415 0.850262C20.1262 0.602123 20.2864 0.386711 20.4997 0.234229C20.7129 0.081747 20.9686 -0.000157344 21.2308 2.2693e-07Z" fill="#BCB9CC"/>
</svg>
