<svg xmlns="http://www.w3.org/2000/svg" viewBox="0 0 24 24" width="24" height="24"><path fill-rule="evenodd" clip-rule="evenodd" d="M12 0c6.627 0 12 5.373 12 12s-5.373 12-12 12S0 18.627 0 12 5.373 0 12 0zm0 2C6.477 2 2 6.477 2 12s4.477 10 10 10 10-4.477 10-10S17.523 2 12 2zm0 15a1.125 1.125 0 110 2.25A1.125 1.125 0 0112 17zm.55-11.724c1.832.156 3.2 1.744 3.2 3.503 0 1.316-.554 2.544-1.497 3.527l-.194.194c-.624.595-.991 1.284-1.05 1.975l-.008.188V15a1 1 0 01-1.993.117L11.002 15v-.34c.002-1.258.55-2.446 1.484-3.416l.192-.191c.687-.656 1.072-1.453 1.072-2.274 0-.747-.601-1.445-1.37-1.51-.89-.076-1.705.399-2.108 1.24l-.07.162-.022.054a1 1 0 01-1.897-.622l.037-.111.021-.054c.694-1.76 2.378-2.817 4.209-2.662z" fill="currentColor"/></svg>
